<svg width="49" height="48" viewBox="0 0 49 48" fill="none" xmlns="http://www.w3.org/2000/svg">
<path d="M35.5592 13H35.5793M14.4123 4H34.5522C40.1137 4 44.6221 8.47715 44.6221 14V34C44.6221 39.5228 40.1137 44 34.5522 44H14.4123C8.85087 44 4.34241 39.5228 4.34241 34V14C4.34241 8.47715 8.85087 4 14.4123 4ZM32.5382 22.74C32.7868 24.4045 32.5005 26.1044 31.72 27.598C30.9396 29.0916 29.7048 30.3028 28.1913 31.0593C26.6777 31.8159 24.9625 32.0792 23.2896 31.8119C21.6166 31.5445 20.0712 30.7602 18.873 29.5703C17.6748 28.3805 16.885 26.8457 16.6158 25.1844C16.3466 23.5231 16.6117 21.8198 17.3736 20.3167C18.1354 18.8137 19.355 17.5875 20.8591 16.8125C22.3631 16.0375 24.0749 15.7532 25.7511 16C27.4608 16.2518 29.0436 17.0429 30.2658 18.2566C31.488 19.4703 32.2847 21.0422 32.5382 22.74Z" stroke="white" stroke-width="4" stroke-linecap="round" stroke-linejoin="round"/>
</svg>
