<svg width="49" height="48" viewBox="0 0 49 48" fill="none" xmlns="http://www.w3.org/2000/svg">
<path d="M44.727 33.8402V39.8402C44.7293 40.3972 44.6144 40.9485 44.3897 41.4589C44.165 41.9692 43.8354 42.4274 43.4221 42.8039C43.0088 43.1805 42.5208 43.4672 41.9895 43.6456C41.4581 43.8241 40.8951 43.8903 40.3365 43.8402C34.1391 43.1715 28.1861 41.0685 22.9558 37.7002C18.0897 34.6295 13.964 30.5325 10.8719 25.7002C7.46821 20.4826 5.35003 14.5422 4.68895 8.36019C4.63863 7.80713 4.70481 7.24971 4.8833 6.72344C5.0618 6.19717 5.34868 5.71357 5.72569 5.30344C6.10269 4.8933 6.56157 4.56561 7.07309 4.34124C7.58462 4.11686 8.13758 4.00072 8.69679 4.00019H14.7387C15.7161 3.99064 16.6637 4.33435 17.4048 4.96726C18.1459 5.60017 18.6299 6.47909 18.7667 7.44019C19.0217 9.36033 19.4947 11.2456 20.1765 13.0602C20.4475 13.776 20.5061 14.554 20.3455 15.302C20.1849 16.0499 19.8117 16.7364 19.2702 17.2802L16.7125 19.8202C19.5795 24.8273 23.7543 28.9731 28.7964 31.8202L31.3541 29.2802C31.9017 28.7425 32.593 28.3719 33.3462 28.2124C34.0994 28.0529 34.8828 28.1111 35.6036 28.3802C37.4309 29.0573 39.3294 29.5269 41.2629 29.7802C42.2413 29.9173 43.1347 30.4066 43.7734 31.1552C44.4121 31.9038 44.7515 32.8593 44.727 33.8402Z" stroke="white" stroke-width="4" stroke-linecap="round" stroke-linejoin="round"/>
</svg>
